<svg version="1.0" xmlns="http://www.w3.org/2000/svg"
 width="1280.000000pt" height="718.000000pt" viewBox="0 0 1280.000000 718.000000"
 preserveAspectRatio="xMidYMid meet">
<metadata>
Created by potrace 1.15, written by Peter Selinger 2001-2017
</metadata>
<g transform="translate(0.000000,718.000000) scale(0.100000,-0.100000)"
fill="#ebc583" stroke="none">
<path d="M6315 7169 c-415 -40 -770 -186 -921 -378 -103 -131 -111 -264 -26
-423 2 -3 -23 -11 -55 -18 -357 -69 -810 -216 -1173 -379 -889 -401 -1685
-1073 -2244 -1893 -161 -236 -317 -513 -449 -798 -200 -430 -364 -995 -427
-1465 l-12 -90 -155 -48 c-463 -142 -742 -296 -829 -458 -29 -54 -26 -153 8
-209 228 -389 1559 -723 3558 -895 3388 -291 7499 -4 8805 615 198 94 316 182
373 280 34 56 37 155 8 209 -46 86 -175 190 -334 270 -129 65 -393 162 -589
216 l-61 17 -12 82 c-143 1017 -570 1960 -1246 2756 -133 157 -461 482 -619
614 -657 548 -1355 905 -2202 1125 l-41 11 39 59 c149 223 35 463 -299 630
-279 140 -715 208 -1097 170z"/>
</g>
</svg>
